<svg version="1.1" xmlns="http://www.w3.org/2000/svg" viewBox="0 0 4840 1960" width="4840" height="1960" filter="invert(93%) hue-rotate(180deg)">
  <!-- svg-source:excalidraw -->
  
  <defs>
    <style class="style-fonts">
      @font-face {
        font-family: "Virgil";
        src: url("https://excalidraw.com/Virgil.woff2");
      }
      @font-face {
        font-family: "Cascadia";
        src: url("https://excalidraw.com/Cascadia.woff2");
      }
      @font-face {
        font-family: "Assistant";
        src: url("https://excalidraw.com/Assistant-Regular.woff2");
      }
    </style>
    
  </defs>
  <rect x="0" y="0" width="4840" height="1960" fill="#ffffff"></rect><g stroke-linecap="round"><g transform="translate(570 990) rotate(0 410 -320)"><path d="M1.09 -0.68 C137.87 -107.47, 683.74 -533.52, 820.38 -639.97 M0.2 1.58 C136.88 -105.07, 682.9 -531.25, 819.63 -638.41" stroke="#1e1e1e" stroke-width="1" fill="none"></path></g><g transform="translate(570 990) rotate(0 410 -320)"><path d="M803.74 -612.96 C806.83 -619.48, 812.39 -625.63, 819.63 -638.41 M803.74 -612.96 C809.38 -621.44, 814 -630.42, 819.63 -638.41" stroke="#1e1e1e" stroke-width="1" fill="none"></path></g><g transform="translate(570 990) rotate(0 410 -320)"><path d="M791.1 -629.13 C797.77 -631.31, 806.81 -633, 819.63 -638.41 M791.1 -629.13 C801.32 -631.88, 810.39 -635.17, 819.63 -638.41" stroke="#1e1e1e" stroke-width="1" fill="none"></path></g></g><mask></mask><g stroke-linecap="round" transform="translate(790 530) rotate(0 60 70.5)"><path d="M56.04 0.4 C64.67 -1.26, 76.08 1.84, 84.64 6.36 C93.21 10.88, 101.84 19.02, 107.43 27.51 C113.02 35.99, 116.68 46.5, 118.17 57.26 C119.66 68.02, 119.13 81.64, 116.36 92.07 C113.58 102.51, 107.96 112.27, 101.53 119.87 C95.1 127.47, 86.59 134.32, 77.78 137.67 C68.97 141.02, 57.87 142, 48.66 139.96 C39.44 137.92, 29.84 132.1, 22.5 125.41 C15.16 118.73, 8.28 109.86, 4.62 99.84 C0.96 89.82, -0.14 76.35, 0.56 65.31 C1.26 54.26, 4.04 42.76, 8.83 33.57 C13.63 24.38, 20.46 15.85, 29.34 10.17 C38.21 4.49, 55.87 1, 62.1 -0.49 C68.33 -1.97, 66.9 0.07, 66.7 1.26 M50.1 1.25 C58.34 -1.56, 69.43 -0.31, 78.34 2.98 C87.26 6.28, 96.9 12.75, 103.61 21.04 C110.33 29.33, 116.27 41.74, 118.66 52.71 C121.05 63.69, 119.86 76.17, 117.96 86.9 C116.06 97.62, 112.95 109.04, 107.26 117.08 C101.58 125.12, 92.78 131.08, 83.85 135.12 C74.92 139.16, 62.91 142.44, 53.67 141.32 C44.42 140.21, 35.88 134.42, 28.36 128.44 C20.85 122.47, 13.51 115.04, 8.57 105.47 C3.63 95.9, -0.81 82.17, -1.26 71 C-1.71 59.83, 1.43 47.89, 5.88 38.44 C10.32 28.99, 18.01 20.39, 25.41 14.3 C32.82 8.21, 46.07 3.9, 50.29 1.91 C54.52 -0.09, 50.68 1.42, 50.78 2.33" stroke="#1e1e1e" stroke-width="1" fill="none"></path></g><g transform="translate(813.2456130873034 555.6489719263482) rotate(0 36.827980041503906 45)"><text x="36.827980041503906" y="0" font-family="Virgil, Segoe UI Emoji" font-size="36px" fill="#1e1e1e" text-anchor="middle" style="white-space: pre;" direction="ltr" dominant-baseline="text-before-edge">w 1</text><text x="36.827980041503906" y="45" font-family="Virgil, Segoe UI Emoji" font-size="36px" fill="#1e1e1e" text-anchor="middle" style="white-space: pre;" direction="ltr" dominant-baseline="text-before-edge">linar</text></g><g stroke-linecap="round"><g transform="translate(550 1090) rotate(0 400 270)"><path d="M0.26 -0.64 C133.57 89.32, 666.68 448.82, 800 538.87 M-1.06 1.63 C132.08 91.79, 665.62 449.95, 799.05 539.81" stroke="#1e1e1e" stroke-width="1" fill="none"></path></g><g transform="translate(550 1090) rotate(0 400 270)"><path d="M769.93 532.6 C777.8 534.76, 785.99 537.3, 799.05 539.81 M769.93 532.6 C777.66 533.5, 785.57 536.67, 799.05 539.81" stroke="#1e1e1e" stroke-width="1" fill="none"></path></g><g transform="translate(550 1090) rotate(0 400 270)"><path d="M781.38 515.57 C785.58 523.02, 790.23 530.83, 799.05 539.81 M781.38 515.57 C785.86 521.15, 790.66 528.94, 799.05 539.81" stroke="#1e1e1e" stroke-width="1" fill="none"></path></g></g><mask></mask><g stroke-linecap="round" transform="translate(10 870) rotate(0 40 230)"><path d="M20 0 C33.57 -0.9, 48.04 1.27, 60 0 M20 0 C34.17 0.62, 48.18 0.86, 60 0 M60 0 C73.53 1.76, 78.76 6.67, 80 20 M60 0 C72.49 2.15, 80.35 5.49, 80 20 M80 20 C79.52 106.28, 80.28 192.87, 80 440 M80 20 C81.53 149.66, 81.87 279.36, 80 440 M80 440 C81.68 452.79, 74.7 460.06, 60 460 M80 440 C80.82 451.14, 74.04 459.88, 60 460 M60 460 C53.8 459.74, 45.4 460.26, 20 460 M60 460 C43.99 459.39, 29.6 459.09, 20 460 M20 460 C4.84 458.67, -1.39 453.88, 0 440 M20 460 C8.73 460.74, -0.32 453.6, 0 440 M0 440 C-1.56 294.23, -0.59 149.17, 0 20 M0 440 C-0.96 308.02, -1.31 176.43, 0 20 M0 20 C-1.97 5.71, 7.06 -1.65, 20 0 M0 20 C1 6.35, 8.25 1.79, 20 0" stroke="#1e1e1e" stroke-width="1" fill="none"></path></g><g stroke-linecap="round" transform="translate(170 870) rotate(0 40 230)"><path d="M20 0 C33.33 -1.58, 44.56 -1.4, 60 0 M20 0 C27.23 0.35, 35.98 0.61, 60 0 M60 0 C74.89 -1.17, 79.34 5.05, 80 20 M60 0 C74.96 0.9, 78.41 6.29, 80 20 M80 20 C80.98 144.96, 81.46 272.53, 80 440 M80 20 C79.33 104.07, 79.29 188.15, 80 440 M80 440 C78.65 454.87, 72.65 458.56, 60 460 M80 440 C78.64 454.02, 72.16 462.05, 60 460 M60 460 C47.89 458.76, 35.57 458.29, 20 460 M60 460 C50.58 460.59, 41.18 459.87, 20 460 M20 460 C7.76 459.94, 1.47 454.48, 0 440 M20 460 C7.79 461.08, 0.67 454.19, 0 440 M0 440 C-1.82 341.71, -1.91 245.42, 0 20 M0 440 C1.89 351.7, 1.87 261.92, 0 20 M0 20 C0.83 6.17, 7.91 1.82, 20 0 M0 20 C-1.3 7.39, 6.73 1.72, 20 0" stroke="#1e1e1e" stroke-width="1" fill="none"></path></g><g stroke-linecap="round" transform="translate(310 870) rotate(0 40 230)"><path d="M20 0 C31.42 0.58, 40.16 -1.75, 60 0 M20 0 C32.63 -0.83, 47.14 -0.11, 60 0 M60 0 C73.54 1.1, 80.48 6.32, 80 20 M60 0 C74.59 -0.07, 81.7 7.99, 80 20 M80 20 C81.45 165.71, 81.63 313.11, 80 440 M80 20 C77.71 121.47, 77.29 223.73, 80 440 M80 440 C79.55 455.3, 72.81 458.37, 60 460 M80 440 C80.95 452.77, 74.76 462.09, 60 460 M60 460 C51.76 461.06, 42.01 459.66, 20 460 M60 460 C47.54 459.24, 34.29 458.96, 20 460 M20 460 C6.53 461.13, -1.21 454.03, 0 440 M20 460 C8.62 459.62, 0.75 451.65, 0 440 M0 440 C1.99 339.94, 1.65 238.78, 0 20 M0 440 C-0.2 335.99, -0.27 232.78, 0 20 M0 20 C-1.08 5.25, 7.6 -0.4, 20 0 M0 20 C-1.11 5.86, 8.86 -1.12, 20 0" stroke="#1e1e1e" stroke-width="1" fill="none"></path></g><g transform="translate(327.06800842285156 1077.5) rotate(0 22.931991577148438 22.5)"><text x="22.931991577148438" y="0" font-family="Virgil, Segoe UI Emoji" font-size="36px" fill="#1e1e1e" text-anchor="middle" style="white-space: pre;" direction="ltr" dominant-baseline="text-before-edge">x2</text></g><g transform="translate(30 1070) rotate(0 22.49999237060547 22.5)"><text x="0" y="0" font-family="Virgil, Segoe UI Emoji" font-size="36px" fill="#1e1e1e" text-anchor="start" style="white-space: pre;" direction="ltr" dominant-baseline="text-before-edge">x0</text></g><g transform="translate(190 1070) rotate(0 14.993995666503906 22.5)"><text x="0" y="0" font-family="Virgil, Segoe UI Emoji" font-size="36px" fill="#1e1e1e" text-anchor="start" style="white-space: pre;" direction="ltr" dominant-baseline="text-before-edge">x1</text></g><g stroke-linecap="round" transform="translate(1610 10) rotate(0 40 230)"><path d="M20 0 C28.3 0.73, 38.97 1.84, 60 0 M20 0 C29.5 0.52, 39.91 0.98, 60 0 M60 0 C71.43 -1.6, 78.26 5.22, 80 20 M60 0 C74.5 -0.86, 79.54 7.4, 80 20 M80 20 C78.55 168.4, 78.23 316.03, 80 440 M80 20 C78.38 160.96, 78.11 300.73, 80 440 M80 440 C80.01 453.62, 73 458.49, 60 460 M80 440 C80.89 455.21, 72.09 461.77, 60 460 M60 460 C46.8 459.22, 34.66 460.45, 20 460 M60 460 C46.07 459.24, 30.21 460.21, 20 460 M20 460 C5.89 461.72, -0.2 452.34, 0 440 M20 460 C7.5 461.06, -1.43 454.67, 0 440 M0 440 C-0.92 327.46, -1.15 215.1, 0 20 M0 440 C0.89 296.55, 0.84 153.08, 0 20 M0 20 C1.6 7.45, 8.3 0.85, 20 0 M0 20 C2.16 5.09, 7.9 2.13, 20 0" stroke="#1e1e1e" stroke-width="1" fill="none"></path></g><g stroke-linecap="round" transform="translate(1770 10) rotate(0 40 230)"><path d="M20 0 C33.77 1.68, 42.32 0.87, 60 0 M20 0 C29.17 0.55, 35.55 -0.86, 60 0 M60 0 C71.59 -1.44, 81.02 5.92, 80 20 M60 0 C72.88 0.74, 81.23 5.67, 80 20 M80 20 C78.19 137.05, 79.35 255.06, 80 440 M80 20 C80.05 145.21, 80.27 271.37, 80 440 M80 440 C79.66 451.83, 74.1 461.64, 60 460 M80 440 C78.75 455.1, 73.28 460.97, 60 460 M60 460 C47.84 460.46, 40.11 458.96, 20 460 M60 460 C51.26 460.39, 42.51 460.7, 20 460 M20 460 C6.47 459, 0.73 454.26, 0 440 M20 460 C5.23 461.34, -0.75 454.25, 0 440 M0 440 C-0.2 271.84, 0.51 103.82, 0 20 M0 440 C0.76 326.75, 1.49 213.19, 0 20 M0 20 C1.63 7.52, 8.54 -1.37, 20 0 M0 20 C1.23 8.8, 5.64 0.21, 20 0" stroke="#1e1e1e" stroke-width="1" fill="none"></path></g><g stroke-linecap="round" transform="translate(1910 10) rotate(0 40 230)"><path d="M20 0 C32.16 0.65, 44.96 -0.34, 60 0 M20 0 C31.62 -1.04, 44.26 -0.96, 60 0 M60 0 C74.35 -0.75, 79.6 7.31, 80 20 M60 0 C74.56 -1, 79.56 5.62, 80 20 M80 20 C78.7 143.13, 78.32 268, 80 440 M80 20 C79.1 175.37, 79.01 330.18, 80 440 M80 440 C80.77 454.97, 72.25 461.54, 60 460 M80 440 C79.95 454.3, 72.56 458.52, 60 460 M60 460 C50.7 459.21, 36.86 461.87, 20 460 M60 460 C49.27 461.08, 39.22 459.72, 20 460 M20 460 C7.39 460.92, -1.25 454.5, 0 440 M20 460 C5.92 460.91, 2.29 453.27, 0 440 M0 440 C1 323.8, 0.23 208.2, 0 20 M0 440 C1.7 303.44, 1.71 166.68, 0 20 M0 20 C1.88 5.3, 7.74 1.85, 20 0 M0 20 C-1.02 6.88, 7.05 -1.23, 20 0" stroke="#1e1e1e" stroke-width="1" fill="none"></path></g><g transform="translate(1927.0680084228516 217.5) rotate(0 22.931991577148438 22.5)"><text x="22.931991577148438" y="0" font-family="Virgil, Segoe UI Emoji" font-size="36px" fill="#1e1e1e" text-anchor="middle" style="white-space: pre;" direction="ltr" dominant-baseline="text-before-edge">x2</text></g><g transform="translate(1630 210) rotate(0 22.49999237060547 22.5)"><text x="0" y="0" font-family="Virgil, Segoe UI Emoji" font-size="36px" fill="#1e1e1e" text-anchor="start" style="white-space: pre;" direction="ltr" dominant-baseline="text-before-edge">x0</text></g><g transform="translate(1790 210) rotate(0 14.993995666503906 22.5)"><text x="0" y="0" font-family="Virgil, Segoe UI Emoji" font-size="36px" fill="#1e1e1e" text-anchor="start" style="white-space: pre;" direction="ltr" dominant-baseline="text-before-edge">x1</text></g><g stroke-linecap="round" transform="translate(1570 1490) rotate(0 40 230)"><path d="M20 0 C36.48 1.79, 53.51 0.09, 60 0 M20 0 C30.4 -0.87, 43.49 0.21, 60 0 M60 0 C73.72 -1.03, 81.98 6.61, 80 20 M60 0 C71.31 0.25, 81.61 7.07, 80 20 M80 20 C81.54 171.16, 80.02 323.32, 80 440 M80 20 C80.68 164.12, 80.44 308.14, 80 440 M80 440 C79.2 453.81, 72.32 458.29, 60 460 M80 440 C77.95 453.73, 71.08 461.51, 60 460 M60 460 C47.79 462.15, 36.05 458.77, 20 460 M60 460 C48.13 458.98, 38.19 458.8, 20 460 M20 460 C8.1 460.53, 0.91 451.63, 0 440 M20 460 C5.31 461.59, -2.23 451.87, 0 440 M0 440 C-2.66 273.86, -3.05 106.97, 0 20 M0 440 C-1.08 279.12, -1.03 117.93, 0 20 M0 20 C-0.1 5.66, 6.37 1.46, 20 0 M0 20 C-2.17 4.94, 5 -0.54, 20 0" stroke="#1e1e1e" stroke-width="1" fill="none"></path></g><g stroke-linecap="round" transform="translate(1730 1490) rotate(0 40 230)"><path d="M20 0 C32 -0.42, 39.85 -1.71, 60 0 M20 0 C33.81 0.62, 46.36 -0.21, 60 0 M60 0 C75.31 -0.06, 78.24 6.88, 80 20 M60 0 C74.94 0.4, 81.4 7.2, 80 20 M80 20 C81.66 151.91, 82.62 283.74, 80 440 M80 20 C78.73 116.14, 78.96 213.1, 80 440 M80 440 C78.98 451.62, 71.55 460.34, 60 460 M80 440 C77.75 454.84, 72.85 459.97, 60 460 M60 460 C43.94 458.9, 30.69 461.52, 20 460 M60 460 C51 458.77, 42.12 459.97, 20 460 M20 460 C7.58 458.3, -1.18 454.71, 0 440 M20 460 C4.44 458.54, 2.21 455.63, 0 440 M0 440 C0.07 284.47, 1.77 129.74, 0 20 M0 440 C1.22 312.08, 1.52 184.31, 0 20 M0 20 C-0.29 8.13, 4.78 -1.5, 20 0 M0 20 C-1.66 6.13, 5.87 1.44, 20 0" stroke="#1e1e1e" stroke-width="1" fill="none"></path></g><g stroke-linecap="round" transform="translate(1870 1490) rotate(0 40 230)"><path d="M20 0 C34.89 -1.37, 50.93 -1.95, 60 0 M20 0 C29.15 -0.64, 38.9 -0.16, 60 0 M60 0 C71.57 0.22, 81.4 7.02, 80 20 M60 0 C74.73 0.53, 80.31 8.88, 80 20 M80 20 C79.43 131.57, 78.21 241.91, 80 440 M80 20 C77.93 136.6, 77.88 252.48, 80 440 M80 440 C78.21 453.68, 71.37 461.31, 60 460 M80 440 C79.52 453.3, 74.72 458.79, 60 460 M60 460 C43.72 460.85, 27.04 458.06, 20 460 M60 460 C51.7 459.89, 42.42 458.78, 20 460 M20 460 C5.49 461.38, -1.94 452.06, 0 440 M20 460 C8.88 462.29, 1.6 452.42, 0 440 M0 440 C2.59 303.93, 1.75 166.46, 0 20 M0 440 C1.35 310, 1.29 180.94, 0 20 M0 20 C-1.89 5.16, 5.22 -0.47, 20 0 M0 20 C-0.8 8.11, 5.27 -0.8, 20 0" stroke="#1e1e1e" stroke-width="1" fill="none"></path></g><g transform="translate(1887.0680084228516 1697.5) rotate(0 22.931991577148438 22.5)"><text x="22.931991577148438" y="0" font-family="Virgil, Segoe UI Emoji" font-size="36px" fill="#1e1e1e" text-anchor="middle" style="white-space: pre;" direction="ltr" dominant-baseline="text-before-edge">x2</text></g><g transform="translate(1590 1690) rotate(0 22.49999237060547 22.5)"><text x="0" y="0" font-family="Virgil, Segoe UI Emoji" font-size="36px" fill="#1e1e1e" text-anchor="start" style="white-space: pre;" direction="ltr" dominant-baseline="text-before-edge">x0</text></g><g transform="translate(1750 1690) rotate(0 14.993995666503906 22.5)"><text x="0" y="0" font-family="Virgil, Segoe UI Emoji" font-size="36px" fill="#1e1e1e" text-anchor="start" style="white-space: pre;" direction="ltr" dominant-baseline="text-before-edge">x1</text></g><g stroke-linecap="round" transform="translate(850 1470) rotate(0 60 70.5)"><path d="M43.56 2.02 C51.88 -1.94, 64.86 -1.65, 73.99 0.91 C83.12 3.48, 91.44 10.25, 98.32 17.4 C105.2 24.54, 111.58 33.69, 115.26 43.78 C118.95 53.87, 121.3 67.01, 120.43 77.93 C119.55 88.84, 115.27 100.22, 110.02 109.29 C104.77 118.37, 97.09 127.09, 88.93 132.37 C80.76 137.66, 70.19 140.87, 61.04 141.03 C51.89 141.18, 42.41 138.04, 34.01 133.3 C25.6 128.57, 16.09 121.34, 10.61 112.61 C5.14 103.89, 2.4 91.98, 1.16 80.95 C-0.08 69.92, 0.25 56.71, 3.15 46.45 C6.05 36.18, 10.8 26.82, 18.58 19.36 C26.36 11.9, 43.74 4.59, 49.82 1.68 C55.9 -1.24, 54.94 0.7, 55.05 1.88 M76.47 3.72 C85.15 6.04, 94.46 13.07, 101.1 20.76 C107.73 28.45, 113.12 39.49, 116.28 49.86 C119.44 60.23, 121.66 72.54, 120.07 82.96 C118.48 93.38, 112.68 103.9, 106.76 112.39 C100.83 120.87, 92.68 128.94, 84.51 133.88 C76.33 138.82, 67.08 142.24, 57.72 142.02 C48.36 141.8, 36.23 138.13, 28.36 132.56 C20.48 126.99, 14.99 118.14, 10.46 108.59 C5.92 99.04, 2.13 86.47, 1.15 75.26 C0.17 64.05, 1.13 51.26, 4.59 41.35 C8.05 31.45, 14.42 22.75, 21.91 15.84 C29.41 8.93, 40.44 2.25, 49.55 -0.08 C58.65 -2.42, 72 0.94, 76.53 1.84 C81.06 2.75, 76.85 3.95, 76.74 5.36" stroke="#1e1e1e" stroke-width="1" fill="none"></path></g><g transform="translate(873.2456130873034 1495.6489719263482) rotate(0 36.827980041503906 45)"><text x="36.827980041503906" y="0" font-family="Virgil, Segoe UI Emoji" font-size="36px" fill="#1e1e1e" text-anchor="middle" style="white-space: pre;" direction="ltr" dominant-baseline="text-before-edge">w 2</text><text x="36.827980041503906" y="45" font-family="Virgil, Segoe UI Emoji" font-size="36px" fill="#1e1e1e" text-anchor="middle" style="white-space: pre;" direction="ltr" dominant-baseline="text-before-edge">linar</text></g><g stroke-linecap="round"><g transform="translate(2030 270) rotate(0 110 0)"><path d="M-0.36 1.06 C36.29 0.87, 183.73 -0.67, 220.5 -0.91 M1.65 0.57 C38.13 0.48, 183.49 0.12, 219.82 0.15" stroke="#1e1e1e" stroke-width="1" fill="none"></path></g><g transform="translate(2030 270) rotate(0 110 0)"><path d="M191.64 10.44 C203.32 7.74, 209.97 3.74, 219.82 0.15 M191.64 10.44 C199.56 8.08, 206.38 4.69, 219.82 0.15" stroke="#1e1e1e" stroke-width="1" fill="none"></path></g><g transform="translate(2030 270) rotate(0 110 0)"><path d="M191.62 -10.08 C203.35 -5.55, 210 -2.32, 219.82 0.15 M191.62 -10.08 C199.45 -6.9, 206.27 -4.75, 219.82 0.15" stroke="#1e1e1e" stroke-width="1" fill="none"></path></g></g><mask></mask><g stroke-linecap="round" transform="translate(2310 10) rotate(0 170 220)"><path d="M89.83 25.57 C101.61 13.88, 119.55 9.96, 134.63 5.71 C149.71 1.45, 165.09 -1.05, 180.3 0.05 C195.51 1.14, 211.62 5.68, 225.89 12.29 C240.16 18.91, 253.33 28.46, 265.92 39.73 C278.52 51.01, 291.41 64.81, 301.47 79.96 C311.52 95.12, 320.21 112.58, 326.23 130.69 C332.26 148.79, 335.54 169.16, 337.6 188.59 C339.66 208.03, 340.39 227.68, 338.57 247.3 C336.76 266.92, 332.82 288.03, 326.72 306.33 C320.63 324.62, 311.54 341.83, 302.02 357.07 C292.5 372.32, 282.02 386.05, 269.6 397.8 C257.19 409.54, 241.89 420.67, 227.52 427.55 C213.14 434.43, 198.63 437.57, 183.35 439.08 C168.08 440.59, 150.83 440.36, 135.87 436.61 C120.9 432.86, 107.16 425.81, 93.58 416.59 C79.99 407.37, 65.61 394.83, 54.36 381.31 C43.11 367.8, 34.1 352.09, 26.05 335.49 C18 318.88, 10.39 300.47, 6.07 281.68 C1.75 262.89, 0.15 242.5, 0.12 222.75 C0.09 203, 1.93 182.39, 5.9 163.16 C9.87 143.93, 16.02 124.37, 23.95 107.35 C31.88 90.32, 40.44 75.79, 53.48 61.03 C66.53 46.27, 92.17 26.03, 102.23 18.77 C112.29 11.51, 112.71 14.13, 113.83 17.46 M185.88 0.86 C200.8 -0.69, 216.62 8.49, 231.09 15.36 C245.55 22.23, 260.4 30.26, 272.68 42.08 C284.97 53.9, 295.68 70.16, 304.8 86.27 C313.91 102.39, 321.53 120.56, 327.38 138.76 C333.22 156.95, 338.38 176.17, 339.87 195.44 C341.37 214.7, 339.15 235.05, 336.33 254.35 C333.5 273.65, 329.32 293.19, 322.93 311.25 C316.54 329.31, 307.92 347.63, 298 362.7 C288.08 377.77, 276 390.52, 263.4 401.65 C250.79 412.79, 236.45 423.19, 222.35 429.5 C208.25 435.82, 193.84 438.65, 178.79 439.56 C163.74 440.47, 147.16 439.55, 132.05 434.95 C116.95 430.36, 101.58 421.5, 88.15 411.98 C74.73 402.46, 62.67 391.37, 51.51 377.82 C40.34 364.28, 28.65 347.93, 21.16 330.7 C13.68 313.47, 10.12 293.97, 6.61 274.43 C3.09 254.88, -0.07 233.3, 0.06 213.44 C0.19 193.58, 2.98 173.76, 7.4 155.24 C11.83 136.73, 18.21 119.1, 26.6 102.35 C34.99 85.59, 46.07 67.99, 57.74 54.72 C69.42 41.45, 83.1 31.4, 96.64 22.72 C110.17 14.05, 124.07 6.15, 138.95 2.68 C153.83 -0.79, 178.21 1.49, 185.91 1.9 C193.6 2.31, 185.26 1.71, 185.13 5.14" stroke="#1e1e1e" stroke-width="1" fill="none"></path></g><g transform="translate(2381.7278823545385 162.43650813895965) rotate(0 98.06396484375 67.5)"><text x="98.06396484375" y="0" font-family="Virgil, Segoe UI Emoji" font-size="36px" fill="#1e1e1e" text-anchor="middle" style="white-space: pre;" direction="ltr" dominant-baseline="text-before-edge">Some </text><text x="98.06396484375" y="45" font-family="Virgil, Segoe UI Emoji" font-size="36px" fill="#1e1e1e" text-anchor="middle" style="white-space: pre;" direction="ltr" dominant-baseline="text-before-edge">activation </text><text x="98.06396484375" y="90" font-family="Virgil, Segoe UI Emoji" font-size="36px" fill="#1e1e1e" text-anchor="middle" style="white-space: pre;" direction="ltr" dominant-baseline="text-before-edge">funtion</text></g><g stroke-linecap="round"><g transform="translate(2750 230) rotate(0 193.55962996309063 280.91318008256326)"><path d="M-1.02 -0.16 C55.57 9.78, 275.9 -34.04, 340.46 59.79 C405.01 153.63, 378.41 479.36, 386.32 562.84 M0.64 -1.29 C57.04 8.82, 275.05 -32.5, 339.75 61.22 C404.44 154.94, 380.65 477.71, 388.8 561.04" stroke="#1e1e1e" stroke-width="1" fill="none"></path></g><g transform="translate(2750 230) rotate(0 193.55962996309063 280.91318008256326)"><path d="M378.11 533.01 C381.88 544.37, 385.81 552.8, 388.8 561.04 M378.11 533.01 C382.06 543.5, 385.89 554.38, 388.8 561.04" stroke="#1e1e1e" stroke-width="1" fill="none"></path></g><g transform="translate(2750 230) rotate(0 193.55962996309063 280.91318008256326)"><path d="M398.63 532.69 C394.7 544, 390.94 552.54, 388.8 561.04 M398.63 532.69 C394.68 543.11, 390.62 554.11, 388.8 561.04" stroke="#1e1e1e" stroke-width="1" fill="none"></path></g></g><mask></mask><g stroke-linecap="round"><g transform="translate(2090.274258743917 1772.2287447340786) rotate(0 516.9432934174638 -330.6660667325193)"><path d="M0.78 0.34 C153.89 -6.33, 746.81 69.58, 919.05 -40.88 C1091.29 -151.35, 1015.21 -559.01, 1034.23 -662.45 M-0.27 -0.52 C153.17 -6.99, 748.94 70.39, 921.26 -39.81 C1093.58 -150.01, 1015.01 -558.27, 1033.65 -661.71" stroke="#1e1e1e" stroke-width="1" fill="none"></path></g><g transform="translate(2090.274258743917 1772.2287447340786) rotate(0 516.9432934174638 -330.6660667325193)"><path d="M1043.92 -633.53 C1041.28 -644.42, 1035.82 -651.63, 1033.65 -661.71 M1043.92 -633.53 C1041.08 -639.52, 1039.22 -645.86, 1033.65 -661.71" stroke="#1e1e1e" stroke-width="1" fill="none"></path></g><g transform="translate(2090.274258743917 1772.2287447340786) rotate(0 516.9432934174638 -330.6660667325193)"><path d="M1023.4 -633.52 C1027.58 -644.55, 1028.94 -651.76, 1033.65 -661.71 M1023.4 -633.52 C1024.81 -639.48, 1027.2 -645.82, 1033.65 -661.71" stroke="#1e1e1e" stroke-width="1" fill="none"></path></g></g><mask></mask><g stroke-linecap="round" transform="translate(2950 810) rotate(0 160 140)"><path d="M132.24 3.26 C147.16 -1.38, 165.31 -0.48, 181.55 1.29 C197.79 3.07, 214.81 7.66, 229.68 13.91 C244.56 20.15, 259.04 28.75, 270.81 38.77 C282.58 48.78, 292.44 61.28, 300.31 74.01 C308.18 86.73, 315.01 100.96, 318.01 115.11 C321.01 129.25, 320.44 144.65, 318.3 158.89 C316.15 173.14, 312.2 187.75, 305.14 200.57 C298.08 213.4, 287.42 225.29, 275.93 235.85 C264.45 246.41, 250.67 256.98, 236.22 263.93 C221.77 270.88, 205.54 275.23, 189.23 277.57 C172.92 279.9, 154.81 279.79, 138.39 277.95 C121.96 276.1, 105.57 272.56, 90.66 266.5 C75.75 260.43, 60.82 251.65, 48.95 241.55 C37.09 231.44, 27.27 218.61, 19.48 205.86 C11.68 193.12, 5.04 179.22, 2.2 165.07 C-0.65 150.92, 0.21 135.18, 2.4 120.96 C4.59 106.75, 8.4 92.71, 15.36 79.8 C22.33 66.88, 32.62 54.13, 44.19 43.48 C55.77 32.82, 68.17 23.02, 84.81 15.86 C101.45 8.71, 132.33 2.78, 144.03 0.53 C155.73 -1.72, 154.94 -0.02, 155.02 2.35 M214.06 7.46 C229.71 10.09, 245.65 21.14, 258.65 30.04 C271.65 38.94, 282.84 48.88, 292.05 60.86 C301.27 72.84, 309.05 87.91, 313.94 101.91 C318.84 115.91, 322.05 130.81, 321.4 144.86 C320.76 158.92, 316.02 172.7, 310.08 186.23 C304.14 199.76, 295.73 214.41, 285.76 226.04 C275.79 237.67, 263.94 248.15, 250.25 256.01 C236.56 263.86, 219.19 269.18, 203.63 273.17 C188.07 277.17, 173 280.39, 156.89 279.96 C140.79 279.54, 122.92 275.27, 107 270.62 C91.08 265.97, 74.55 260.82, 61.38 252.05 C48.2 243.27, 37.07 230.22, 27.95 217.97 C18.83 205.71, 11.21 191.97, 6.67 178.5 C2.13 165.03, 0.45 151.37, 0.71 137.14 C0.97 122.91, 2.71 106.93, 8.22 93.11 C13.72 79.29, 23.73 65.71, 33.75 54.23 C43.77 42.76, 54.59 32.17, 68.34 24.27 C82.08 16.38, 100.41 11.08, 116.21 6.85 C132.01 2.62, 146.61 -1.09, 163.12 -1.11 C179.63 -1.13, 206.83 4.97, 215.26 6.74 C223.7 8.5, 214.8 7.03, 213.73 9.49" stroke="#1e1e1e" stroke-width="1" fill="none"></path></g><g transform="translate(3008.810966462788 905.0050506338835) rotate(0 101.05194854736328 45)"><text x="101.05194854736328" y="0" font-family="Virgil, Segoe UI Emoji" font-size="36px" fill="#1e1e1e" text-anchor="middle" style="white-space: pre;" direction="ltr" dominant-baseline="text-before-edge">Elementwise</text><text x="101.05194854736328" y="45" font-family="Virgil, Segoe UI Emoji" font-size="36px" fill="#1e1e1e" text-anchor="middle" style="white-space: pre;" direction="ltr" dominant-baseline="text-before-edge">product</text></g><g stroke-linecap="round" transform="translate(3350 730) rotate(0 40 230)"><path d="M20 0 C29.85 1.16, 41.09 -0.18, 60 0 M20 0 C28.19 0.67, 36.02 0.62, 60 0 M60 0 C74.03 -1.37, 81.22 6.74, 80 20 M60 0 C72.18 -0.18, 81.64 4.76, 80 20 M80 20 C80.92 143.18, 80.33 267.43, 80 440 M80 20 C81.36 143.1, 81.42 266.71, 80 440 M80 440 C81.59 454.66, 74.74 461.75, 60 460 M80 440 C77.94 454.27, 74.66 461.4, 60 460 M60 460 C48.47 457.88, 34.96 458.38, 20 460 M60 460 C51.28 459.96, 43.39 460.25, 20 460 M20 460 C6.24 458.43, -0.43 451.67, 0 440 M20 460 C8.36 461.59, -1.19 451.88, 0 440 M0 440 C-0.36 300.91, -0.12 163.34, 0 20 M0 440 C0.88 303.06, 1.24 165.04, 0 20 M0 20 C0.49 5.03, 5.71 -1.44, 20 0 M0 20 C-1.71 7.39, 8.89 0.49, 20 0" stroke="#1e1e1e" stroke-width="1" fill="none"></path></g><g stroke-linecap="round" transform="translate(3510 730) rotate(0 40 230)"><path d="M20 0 C35.29 -0.22, 47.07 0.11, 60 0 M20 0 C32.84 0.45, 47.37 -1.01, 60 0 M60 0 C74.56 0.08, 79 6.51, 80 20 M60 0 C74.97 -1.91, 79.85 6.79, 80 20 M80 20 C81.89 125.11, 81.61 228.83, 80 440 M80 20 C80.74 185.43, 80.97 351.29, 80 440 M80 440 C81.4 455.09, 71.55 460.82, 60 460 M80 440 C81.33 454.73, 73.07 460.41, 60 460 M60 460 C47.44 458.12, 36.85 460.66, 20 460 M60 460 C45.38 459.92, 31.23 459.11, 20 460 M20 460 C6.24 458.34, 1.47 454.71, 0 440 M20 460 C5.48 458.55, 0.67 454.32, 0 440 M0 440 C-0.42 335.22, -0.97 230.72, 0 20 M0 440 C0.02 347.51, -0.32 255.47, 0 20 M0 20 C-0.95 5.22, 5.18 0.63, 20 0 M0 20 C2.23 7.16, 6.26 -0.43, 20 0" stroke="#1e1e1e" stroke-width="1" fill="none"></path></g><g stroke-linecap="round" transform="translate(3650 730) rotate(0 40 230)"><path d="M20 0 C32.99 0.38, 50.39 -0.32, 60 0 M20 0 C35.62 -0.99, 51.15 -0.27, 60 0 M60 0 C72.33 -0.16, 81.43 5.01, 80 20 M60 0 C73.18 0.12, 78.8 8.39, 80 20 M80 20 C80.38 144.81, 81.45 268.7, 80 440 M80 20 C81.22 124.09, 81.17 227.95, 80 440 M80 440 C78.21 454.15, 74.49 461.22, 60 460 M80 440 C79.74 453.74, 72.53 460.02, 60 460 M60 460 C50.03 460.76, 45.06 458.53, 20 460 M60 460 C48.87 459.22, 37.95 459.18, 20 460 M20 460 C8.14 461.38, -1.03 452.07, 0 440 M20 460 C7.33 460.98, -1.18 454.63, 0 440 M0 440 C-1.47 349.73, -2.62 260.42, 0 20 M0 440 C-1.84 289.1, -2.23 138.7, 0 20 M0 20 C-1.49 7.29, 8.6 0.43, 20 0 M0 20 C-0.41 6.24, 7.29 -0.67, 20 0" stroke="#1e1e1e" stroke-width="1" fill="none"></path></g><g transform="translate(3667.0680084228516 937.5) rotate(0 22.931991577148438 22.5)"><text x="22.931991577148438" y="0" font-family="Virgil, Segoe UI Emoji" font-size="36px" fill="#1e1e1e" text-anchor="middle" style="white-space: pre;" direction="ltr" dominant-baseline="text-before-edge">x2</text></g><g transform="translate(3370 930) rotate(0 22.49999237060547 22.5)"><text x="0" y="0" font-family="Virgil, Segoe UI Emoji" font-size="36px" fill="#1e1e1e" text-anchor="start" style="white-space: pre;" direction="ltr" dominant-baseline="text-before-edge">x0</text></g><g transform="translate(3530 930) rotate(0 14.993995666503906 22.5)"><text x="0" y="0" font-family="Virgil, Segoe UI Emoji" font-size="36px" fill="#1e1e1e" text-anchor="start" style="white-space: pre;" direction="ltr" dominant-baseline="text-before-edge">x1</text></g><g stroke-linecap="round"><g transform="translate(3810 970) rotate(0 230 0)"><path d="M-0.71 -1.18 C76.13 -0.94, 383.36 0.98, 460.06 1.14 M1.12 0.81 C77.89 0.77, 382.91 -0.41, 459.14 -0.39" stroke="#1e1e1e" stroke-width="1" fill="none"></path></g><g transform="translate(3810 970) rotate(0 230 0)"><path d="M430.97 9.93 C435.18 7.94, 445.21 4.75, 459.14 -0.39 M430.97 9.93 C439.46 7.37, 446.16 4.64, 459.14 -0.39" stroke="#1e1e1e" stroke-width="1" fill="none"></path></g><g transform="translate(3810 970) rotate(0 230 0)"><path d="M430.93 -10.59 C435.09 -8.1, 445.13 -6.8, 459.14 -0.39 M430.93 -10.59 C439.4 -7.45, 446.11 -4.46, 459.14 -0.39" stroke="#1e1e1e" stroke-width="1" fill="none"></path></g></g><mask></mask><g stroke-linecap="round" transform="translate(3950 710) rotate(0 60 70.5)"><path d="M57.24 0.79 C65.99 -0.83, 76.06 2.31, 84.29 6.83 C92.52 11.35, 100.73 19.43, 106.63 27.92 C112.52 36.41, 117.9 47.18, 119.67 57.76 C121.43 68.33, 120.2 81.06, 117.24 91.35 C114.27 101.64, 108.52 111.65, 101.87 119.49 C95.23 127.32, 86.07 134.96, 77.38 138.36 C68.68 141.77, 58.88 141.87, 49.69 139.91 C40.51 137.94, 29.51 133.17, 22.26 126.56 C15.02 119.94, 9.99 110.42, 6.2 100.21 C2.42 90.01, -0.75 76.31, -0.44 65.34 C-0.14 54.38, 3.06 43.64, 8.04 34.43 C13.02 25.22, 19.89 15.75, 29.43 10.08 C38.98 4.42, 57.7 1.44, 65.33 0.43 C72.95 -0.58, 75.2 2.9, 75.16 4.03 M47.23 2.43 C55.79 -0.71, 67.44 0.86, 76.43 3.57 C85.43 6.28, 94.54 11.18, 101.18 18.69 C107.83 26.2, 113.39 38.29, 116.32 48.6 C119.25 58.92, 120.14 69.8, 118.76 80.56 C117.38 91.33, 113.2 104.59, 108.04 113.22 C102.88 121.86, 95.98 127.56, 87.78 132.37 C79.59 137.18, 68.24 142.34, 58.86 142.08 C49.48 141.83, 39.88 136.12, 31.51 130.82 C23.14 125.53, 13.78 119.28, 8.63 110.32 C3.48 101.36, 1.56 88.18, 0.62 77.07 C-0.33 65.96, -0.45 53.67, 2.97 43.65 C6.39 33.64, 13.89 23.91, 21.12 16.99 C28.36 10.07, 41.96 4.58, 46.38 2.13 C50.8 -0.33, 47.49 1.39, 47.64 2.29" stroke="#1e1e1e" stroke-width="1" fill="none"></path></g><g transform="translate(3973.2456130873034 735.6489719263482) rotate(0 36.827980041503906 45)"><text x="36.827980041503906" y="0" font-family="Virgil, Segoe UI Emoji" font-size="36px" fill="#1e1e1e" text-anchor="middle" style="white-space: pre;" direction="ltr" dominant-baseline="text-before-edge">w 2</text><text x="36.827980041503906" y="45" font-family="Virgil, Segoe UI Emoji" font-size="36px" fill="#1e1e1e" text-anchor="middle" style="white-space: pre;" direction="ltr" dominant-baseline="text-before-edge">linar</text></g><g stroke-linecap="round" transform="translate(4450 730) rotate(0 40 230)"><path d="M20 0 C33.11 1.92, 43.34 1.62, 60 0 M20 0 C33.56 0.96, 47.07 -0.63, 60 0 M60 0 C71.75 1.65, 79.22 5.03, 80 20 M60 0 C74.15 -0.68, 81.89 4.56, 80 20 M80 20 C80.98 181.31, 82.66 344.52, 80 440 M80 20 C79.44 186.83, 79 353.93, 80 440 M80 440 C79.71 453.39, 74.09 461.03, 60 460 M80 440 C79.22 451.12, 72.66 458.6, 60 460 M60 460 C49.32 459.32, 43.08 458.87, 20 460 M60 460 C46.83 461.07, 35.55 460.9, 20 460 M20 460 C5.88 459.87, -1.58 454.65, 0 440 M20 460 C4.93 461.42, 0.97 453.63, 0 440 M0 440 C1.34 336.22, 1.4 232.13, 0 20 M0 440 C0.22 281.19, 0.33 122.67, 0 20 M0 20 C-1.77 4.69, 7.93 -1.84, 20 0 M0 20 C-1.07 5.22, 7.44 -1.96, 20 0" stroke="#1e1e1e" stroke-width="1" fill="none"></path></g><g stroke-linecap="round" transform="translate(4610 730) rotate(0 40 230)"><path d="M20 0 C31.91 1.18, 43.46 -1.07, 60 0 M20 0 C29.06 -1.21, 36.53 0.57, 60 0 M60 0 C72.56 -1.64, 80.71 6.08, 80 20 M60 0 C75.22 -2.11, 81.96 8.32, 80 20 M80 20 C79.71 131.11, 79.71 240.21, 80 440 M80 20 C81.9 157.77, 81.82 295.48, 80 440 M80 440 C80.75 454.36, 72.66 458.07, 60 460 M80 440 C79.33 451.93, 71.63 460.74, 60 460 M60 460 C50.49 458.89, 38.73 458.3, 20 460 M60 460 C45.23 460.95, 30.2 460.25, 20 460 M20 460 C5.08 461.32, -1.51 454.57, 0 440 M20 460 C7.64 460.3, -1.19 452.61, 0 440 M0 440 C-0.64 312.91, -0.51 184.36, 0 20 M0 440 C0.58 284.84, 0.14 129.53, 0 20 M0 20 C1.26 4.82, 5.74 -1.26, 20 0 M0 20 C0.77 4.71, 6.32 0.1, 20 0" stroke="#1e1e1e" stroke-width="1" fill="none"></path></g><g stroke-linecap="round" transform="translate(4750 730) rotate(0 40 230)"><path d="M20 0 C36.38 -1.01, 49.76 0.13, 60 0 M20 0 C33.71 1.21, 48.61 -0.43, 60 0 M60 0 C74.05 -0.59, 81.64 4.83, 80 20 M60 0 C75.3 1.65, 79.14 5.3, 80 20 M80 20 C83.23 123.23, 82.49 228.33, 80 440 M80 20 C79.96 137.29, 80.24 254.81, 80 440 M80 440 C79.32 451.4, 72.75 458.78, 60 460 M80 440 C78.3 454.08, 72.58 458.12, 60 460 M60 460 C49.19 458.21, 39.55 457.83, 20 460 M60 460 C44.41 460.19, 28.82 460.91, 20 460 M20 460 C5.16 461.24, 0.85 453.6, 0 440 M20 460 C5.48 459.28, 0.1 454.71, 0 440 M0 440 C-0.63 295.16, -0.72 150.38, 0 20 M0 440 C-0.35 331.95, 0.46 224.47, 0 20 M0 20 C-0.93 5.41, 7.34 -1.71, 20 0 M0 20 C-0.34 6.76, 4.53 -0.61, 20 0" stroke="#1e1e1e" stroke-width="1" fill="none"></path></g><g transform="translate(4767.068008422852 937.5) rotate(0 22.931991577148438 22.5)"><text x="22.931991577148438" y="0" font-family="Virgil, Segoe UI Emoji" font-size="36px" fill="#1e1e1e" text-anchor="middle" style="white-space: pre;" direction="ltr" dominant-baseline="text-before-edge">x2</text></g><g transform="translate(4470 930) rotate(0 22.49999237060547 22.5)"><text x="0" y="0" font-family="Virgil, Segoe UI Emoji" font-size="36px" fill="#1e1e1e" text-anchor="start" style="white-space: pre;" direction="ltr" dominant-baseline="text-before-edge">x0</text></g><g transform="translate(4630 930) rotate(0 14.993995666503906 22.5)"><text x="0" y="0" font-family="Virgil, Segoe UI Emoji" font-size="36px" fill="#1e1e1e" text-anchor="start" style="white-space: pre;" direction="ltr" dominant-baseline="text-before-edge">x1</text></g><g stroke-linecap="round" transform="translate(4390 350) rotate(0 200 80)"><path d="M32 0 C147.04 2.64, 260.99 1.69, 368 0 M32 0 C117.37 1.35, 202.94 2.06, 368 0 M368 0 C388.15 0.12, 398.2 9.33, 400 32 M368 0 C390.49 0.51, 398.87 12.63, 400 32 M400 32 C398.34 60.55, 399.6 89.21, 400 128 M400 32 C400.54 62.96, 401.07 92.67, 400 128 M400 128 C399.96 147.66, 391.19 159.3, 368 160 M400 128 C399.09 150.92, 388.63 158.47, 368 160 M368 160 C292.51 161.14, 219.3 162.11, 32 160 M368 160 C245.87 159.44, 124.53 160, 32 160 M32 160 C9.64 161.5, -1.13 149.35, 0 128 M32 160 C9.36 160.03, -2.14 149.73, 0 128 M0 128 C-1.05 103.23, 1.64 80.42, 0 32 M0 128 C-0.48 105.71, -0.19 83.71, 0 32 M0 32 C-0.83 10.06, 10.35 -0.86, 32 0 M0 32 C1.86 10.98, 8.51 -1.07, 32 0" stroke="#1e1e1e" stroke-width="1" fill="none"></path></g><g transform="translate(4545.1428571428405 412.00000000000546) rotate(0 62.72998046875 22.5)"><text x="0" y="0" font-family="Virgil, Segoe UI Emoji" font-size="36px" fill="#1e1e1e" text-anchor="start" style="white-space: pre;" direction="ltr" dominant-baseline="text-before-edge">Output</text></g></svg>